<svg width="149" height="132" viewBox="0 0 149 132" fill="none" xmlns="http://www.w3.org/2000/svg">
<g clip-path="url(#clip0_1821_2741)">
<path d="M113.234 101.482C113.234 101.482 114.381 93.7224 121.093 88.3223C127.804 82.9223 144.348 74.5411 148.114 77.8295C151.88 81.1179 135.506 96.0628 133.212 98.364C130.919 100.665 120.767 108.059 117.822 108.386C114.876 108.713 113.234 101.482 113.234 101.482Z" fill="white" stroke="#E6E6E6" stroke-miterlimit="10"/>
<path d="M64.7427 86.1909C64.7427 86.1909 24.0506 96.6772 18.4534 60.3414C12.8562 24.0056 29.0092 3.07228 62.3839 1.54249C95.7585 0.0126981 111.807 18.9651 117.007 44.4616C121.946 68.7029 120.467 97.3571 117.893 108.085C117.854 108.262 117.698 108.379 117.515 108.379C112.804 108.379 55.1968 108.392 41.5394 108.392C27.882 108.392 21.8482 106.595 30.2994 81.5165" fill="white"/>
<path d="M64.7427 86.1909C64.7427 86.1909 24.0506 96.6772 18.4534 60.3414C12.8562 24.0056 29.0092 3.07228 62.3839 1.54249C95.7585 0.012698 111.807 18.9651 117.007 44.4616C121.946 68.7029 120.467 97.3571 117.893 108.085C117.854 108.262 117.698 108.379 117.515 108.379C112.804 108.379 55.1968 108.392 41.5394 108.392C27.882 108.392 21.8482 106.595 30.2994 81.5165" stroke="#E6E6E6" stroke-miterlimit="10"/>
<path d="M40.6535 60.656C42.2333 60.656 43.514 59.3711 43.514 57.786C43.514 56.201 42.2333 54.916 40.6535 54.916C39.0737 54.916 37.793 56.201 37.793 57.786C37.793 59.3711 39.0737 60.656 40.6535 60.656Z" fill="#6E6E6E"/>
<path d="M57.2765 60.656C58.8563 60.656 60.137 59.3711 60.137 57.786C60.137 56.201 58.8563 54.916 57.2765 54.916C55.6967 54.916 54.416 56.201 54.416 57.786C54.416 59.3711 55.6967 60.656 57.2765 60.656Z" fill="#6E6E6E"/>
<path d="M44.9148 65.1865H49.8603C50.4337 65.1865 50.74 65.873 50.349 66.2979L47.873 69.011C47.6123 69.2987 47.1562 69.2987 46.8956 69.011L44.4195 66.2979C44.0286 65.873 44.3348 65.1865 44.9082 65.1865H44.9148Z" fill="#6E6E6E"/>
<path d="M40.2809 63.9896C39.9682 63.8719 39.9356 63.4405 40.2092 63.2574C41.0563 62.6952 43.4737 61.3811 47.3572 61.453C52.2833 61.5511 56.3688 62.9763 56.1928 63.7477C56.0039 64.5911 51.2929 64.4603 48.0284 64.1073C47.5918 64.0615 47.1552 64.0615 46.7187 64.1204C45.1679 64.3426 41.5255 64.4538 40.2809 63.9831V63.9896Z" fill="#F6F6F6"/>
<path d="M71.161 19.5074C70.0769 12.3247 75.5257 5.51295 83.1354 4.27185C90.1389 3.13061 100.551 4.28612 111.734 15.4346C131.696 35.3421 106.442 59.0585 98.2835 57.4537C88.9423 57.4537 84.0483 52.0328 81.7019 43.5733C80.0829 37.7601 72.5445 28.5945 71.1681 19.5003L71.161 19.5074Z" fill="#DDE6FF" stroke="#E6E6E6" stroke-miterlimit="10"/>
<path d="M34.0984 15.3762C33.5902 13.5915 32.3456 12.0813 30.7101 11.2183C26.8918 9.20476 18.8055 7.80572 6.8357 20.3578C-10.3729 38.4081 11.5272 54.8893 15.8277 54.8893C20.1282 54.8893 29.1267 57.635 32.2544 36.8391C34.6001 21.2404 34.75 17.6709 34.0984 15.3762Z" fill="#DDE6FF" stroke="#E6E6E6" stroke-miterlimit="10"/>
<path d="M64.6766 86.3222C50.2959 89.7283 31.921 87.8193 23.3265 74.2669C20.5767 69.9391 19.0455 64.9444 18.3809 59.917L18.7848 61.7802C19.2801 64.2645 20.0946 66.6703 21.0394 69.0173C28.2851 86.3745 48.0479 89.3818 64.6701 86.3222H64.6766Z" fill="#E6E6E6"/>
<path d="M91.4581 89.0225C91.4581 89.0225 71.4803 101.235 73.018 114.597C74.5558 127.96 101.701 123.449 107.846 101.81" fill="white"/>
<path d="M91.4581 89.0225C91.4581 89.0225 71.4803 101.235 73.018 114.597C74.5558 127.96 101.701 123.449 107.846 101.81" stroke="#E6E6E6" stroke-miterlimit="10"/>
<path d="M30.2918 81.5166C30.2918 81.5166 16.2891 111.596 30.2918 125.436C44.2946 139.276 58.2517 126.384 59.2877 122.128C61.2881 113.904 57.8021 107.275 43.6951 107.386" fill="white"/>
<path d="M30.2918 81.5166C30.2918 81.5166 16.2891 111.596 30.2918 125.436C44.2946 139.276 58.2517 126.384 59.2877 122.128C61.2881 113.904 57.8021 107.275 43.6951 107.386" stroke="#E6E6E6" stroke-miterlimit="10"/>
</g>
<defs>
<clipPath id="clip0_1821_2741">
<rect width="149" height="132" fill="white"/>
</clipPath>
</defs>
</svg>
