<svg width="393" height="260" viewBox="0 0 393 260" fill="none" xmlns="http://www.w3.org/2000/svg">
<rect width="393" height="260" fill="#E6E6E6"/>
<path d="M192.595 142.883V130.82C192.595 127.484 193.788 124.628 196.201 122.253C198.614 119.878 201.487 118.704 204.848 118.704C208.21 118.704 211.138 119.878 213.55 122.253C215.963 124.628 217.156 127.457 217.156 130.82V142.883H212.574V130.82C212.574 128.738 211.815 126.924 210.297 125.429C208.779 123.935 206.99 123.214 204.848 123.214C202.707 123.214 200.918 123.961 199.4 125.429C197.909 126.924 197.15 128.712 197.15 130.82V142.883H192.568H192.595Z" fill="#6E6E6E"/>
<path d="M247.953 142.937C247.953 146.273 246.76 149.128 244.347 151.45C241.935 153.826 239.061 155 235.646 155V150.49C237.76 150.49 239.603 149.742 241.121 148.274C242.612 146.807 243.371 145.018 243.371 142.91V140.161C241.094 142.003 238.519 142.91 235.646 142.91C232.284 142.91 229.384 141.736 226.998 139.361C224.585 136.985 223.393 134.156 223.393 130.847C223.393 127.538 224.585 124.655 226.998 122.28C229.411 119.905 232.284 118.73 235.646 118.73C239.007 118.73 241.935 119.905 244.347 122.28C246.76 124.655 247.953 127.484 247.953 130.847V142.91V142.937ZM235.673 138.426C237.814 138.426 239.631 137.679 241.149 136.211C242.64 134.743 243.399 132.955 243.399 130.847C243.399 128.739 242.64 126.95 241.149 125.456C239.658 123.988 237.814 123.241 235.673 123.241C233.531 123.241 231.742 123.988 230.224 125.456C228.733 126.95 227.974 128.739 227.974 130.847C227.974 132.955 228.733 134.717 230.224 136.211C231.715 137.679 233.531 138.426 235.673 138.426Z" fill="#6E6E6E"/>
<path d="M254.918 142.883V108.082H259.499V142.883H254.918Z" fill="#6E6E6E"/>
<path d="M271.4 133.062C271.915 134.61 272.81 135.891 274.138 136.878C275.494 137.866 277.039 138.373 278.747 138.373C280.102 138.373 281.458 138.053 282.84 137.465C284.277 136.825 285.334 136.024 285.985 135.037L289.753 137.572C288.668 139.174 287.096 140.455 285.009 141.415C282.948 142.403 280.861 142.883 278.747 142.883C275.358 142.883 272.458 141.709 270.045 139.334C267.632 136.958 266.439 134.129 266.439 130.82C266.439 127.511 267.632 124.628 270.045 122.253C272.458 119.878 275.331 118.704 278.747 118.704C282.162 118.704 285.009 119.878 287.394 122.253C289.807 124.628 291 127.457 291 130.82C291 131.567 290.918 132.315 290.783 133.035H271.4V133.062ZM278.747 123.241C277.039 123.241 275.494 123.748 274.138 124.735C272.81 125.723 271.915 127.03 271.4 128.578H286.039C285.524 127.004 284.629 125.723 283.301 124.735C281.945 123.748 280.427 123.241 278.72 123.241H278.747Z" fill="#6E6E6E"/>
<path d="M135.452 106.027V129.326C135.452 137.599 128.62 144.324 120.217 144.324C117.425 144.324 114.931 143.871 112.681 142.963C110.431 142.056 108.533 140.748 106.934 139.013C105.334 137.305 104.114 135.277 103.274 132.929C102.434 130.58 102 127.991 102 125.162C102 122.333 102.434 119.718 103.274 117.369C104.114 115.021 105.334 112.992 106.907 111.284C108.479 109.576 110.404 108.295 112.654 107.361C114.904 106.454 117.425 106 120.217 106H135.452V106.027Z" fill="#6E6E6E"/>
<path d="M172.019 142.376C166.895 142.376 162.585 138.987 161.23 134.37C160.796 132.848 161.934 131.327 163.561 131.327H164.184C165.296 131.327 166.163 132.101 166.516 133.142C167.275 135.41 169.47 137.065 172.019 137.065C174.567 137.065 176.763 135.437 177.522 133.142C177.874 132.101 178.742 131.327 179.853 131.327H180.476C182.076 131.327 183.242 132.848 182.808 134.37C181.452 138.987 177.142 142.376 172.019 142.376Z" fill="#BEBEBE"/>
<path d="M170.717 127.645C170.717 124.149 167.817 121.293 164.266 121.293C160.714 121.293 157.814 124.149 157.814 127.645C157.814 130.047 159.196 132.128 161.229 133.196C160.443 135.411 158.275 137.039 155.754 137.039C153.232 137.039 151.01 135.384 150.251 133.116C149.898 132.075 149.031 131.301 147.919 131.301H147.296C145.696 131.301 144.531 132.822 144.964 134.344C146.32 138.961 150.63 142.35 155.754 142.35C160.877 142.35 165.187 138.961 166.543 134.344C166.624 134.05 166.597 133.783 166.57 133.516C168.982 132.609 170.717 130.314 170.717 127.618V127.645Z" fill="#6E6E6E"/>
</svg>
