<svg width="393" height="362" viewBox="0 0 393 362" fill="none" xmlns="http://www.w3.org/2000/svg">
<rect width="393" height="362" fill="#E6E6E6"/>
<path d="M192.595 177.884V165.821C192.595 162.485 193.788 159.629 196.201 157.254C198.614 154.878 201.487 153.704 204.848 153.704C208.21 153.704 211.138 154.878 213.55 157.254C215.963 159.629 217.156 162.458 217.156 165.821V177.884H212.574V165.821C212.574 163.739 211.815 161.924 210.297 160.43C208.779 158.935 206.99 158.214 204.848 158.214C202.707 158.214 200.918 158.962 199.4 160.43C197.909 161.924 197.15 163.712 197.15 165.821V177.884H192.568H192.595Z" fill="#6E6E6E"/>
<path d="M247.953 177.937C247.953 181.273 246.76 184.128 244.347 186.45C241.935 188.826 239.061 190 235.646 190V185.49C237.76 185.49 239.603 184.742 241.121 183.274C242.612 181.807 243.371 180.018 243.371 177.91V175.161C241.094 177.003 238.519 177.91 235.646 177.91C232.284 177.91 229.384 176.736 226.998 174.361C224.585 171.985 223.393 169.156 223.393 165.847C223.393 162.538 224.585 159.655 226.998 157.28C229.411 154.905 232.284 153.73 235.646 153.73C239.007 153.73 241.935 154.905 244.347 157.28C246.76 159.655 247.953 162.484 247.953 165.847V177.91V177.937ZM235.673 173.426C237.814 173.426 239.631 172.679 241.149 171.211C242.64 169.743 243.399 167.955 243.399 165.847C243.399 163.739 242.64 161.95 241.149 160.456C239.658 158.988 237.814 158.241 235.673 158.241C233.531 158.241 231.742 158.988 230.224 160.456C228.733 161.95 227.974 163.739 227.974 165.847C227.974 167.955 228.733 169.717 230.224 171.211C231.715 172.679 233.531 173.426 235.673 173.426Z" fill="#6E6E6E"/>
<path d="M254.918 177.883V143.081H259.499V177.883H254.918Z" fill="#6E6E6E"/>
<path d="M271.4 168.062C271.915 169.61 272.81 170.891 274.138 171.879C275.494 172.866 277.039 173.373 278.747 173.373C280.102 173.373 281.458 173.053 282.84 172.466C284.277 171.825 285.334 171.025 285.985 170.037L289.753 172.573C288.668 174.174 287.096 175.455 285.009 176.416C282.948 177.403 280.861 177.884 278.747 177.884C275.358 177.884 272.458 176.709 270.045 174.334C267.632 171.959 266.439 169.13 266.439 165.821C266.439 162.511 267.632 159.629 270.045 157.254C272.458 154.878 275.331 153.704 278.747 153.704C282.162 153.704 285.009 154.878 287.394 157.254C289.807 159.629 291 162.458 291 165.821C291 166.568 290.918 167.315 290.783 168.036H271.4V168.062ZM278.747 158.241C277.039 158.241 275.494 158.748 274.138 159.736C272.81 160.723 271.915 162.031 271.4 163.579H286.039C285.524 162.004 284.629 160.723 283.301 159.736C281.945 158.748 280.427 158.241 278.72 158.241H278.747Z" fill="#6E6E6E"/>
<path d="M135.452 141.027V164.326C135.452 172.599 128.62 179.324 120.217 179.324C117.425 179.324 114.931 178.871 112.681 177.963C110.431 177.056 108.533 175.748 106.934 174.013C105.334 172.305 104.114 170.277 103.274 167.929C102.434 165.58 102 162.991 102 160.162C102 157.333 102.434 154.718 103.274 152.369C104.114 150.021 105.334 147.992 106.907 146.284C108.479 144.576 110.404 143.295 112.654 142.361C114.904 141.454 117.425 141 120.217 141H135.452V141.027Z" fill="#6E6E6E"/>
<path d="M172.019 177.376C166.895 177.376 162.585 173.987 161.23 169.37C160.796 167.848 161.934 166.327 163.561 166.327H164.184C165.296 166.327 166.163 167.101 166.516 168.142C167.275 170.41 169.47 172.065 172.019 172.065C174.567 172.065 176.763 170.437 177.522 168.142C177.874 167.101 178.742 166.327 179.853 166.327H180.476C182.076 166.327 183.242 167.848 182.808 169.37C181.452 173.987 177.142 177.376 172.019 177.376Z" fill="#BEBEBE"/>
<path d="M170.717 162.645C170.717 159.149 167.817 156.293 164.266 156.293C160.714 156.293 157.814 159.149 157.814 162.645C157.814 165.047 159.196 167.128 161.229 168.196C160.443 170.411 158.275 172.039 155.754 172.039C153.232 172.039 151.01 170.384 150.251 168.116C149.898 167.075 149.031 166.301 147.919 166.301H147.296C145.696 166.301 144.531 167.822 144.964 169.344C146.32 173.961 150.63 177.35 155.754 177.35C160.877 177.35 165.187 173.961 166.543 169.344C166.624 169.05 166.597 168.783 166.57 168.516C168.982 167.609 170.717 165.314 170.717 162.618V162.645Z" fill="#6E6E6E"/>
</svg>
