<svg width="65" height="32" viewBox="0 0 65 32" fill="none" xmlns="http://www.w3.org/2000/svg">
<path d="M32.9324 26.3922C32.5084 26.3922 32.0844 26.2826 31.7084 26.0712L31.2284 25.7972C30.8524 25.5858 30.3884 25.578 30.0124 25.7894L29.5484 26.0399C28.7404 26.4862 27.7324 26.4314 26.9724 25.9068L26.3164 25.4527C26.0764 25.2883 25.7564 25.2727 25.5084 25.4136C24.9644 25.7189 24.3884 25.7581 23.8684 25.5467L23.7244 25.4919C23.2284 25.2883 22.9004 24.8186 22.9004 24.2941V8.61273C22.9164 6.51458 24.6604 4.80005 26.8044 4.80005H39.0124C41.1564 4.80005 42.9004 6.50675 42.9004 8.60491V24.2941C42.9004 24.8264 42.5724 25.304 42.0604 25.4997C41.5724 25.6876 41.0284 25.6563 40.5564 25.4214C40.2364 25.257 39.9404 25.2727 39.7084 25.4293L38.9404 25.9381C38.1724 26.447 37.2044 26.494 36.3964 26.0477L35.8924 25.7737C35.5244 25.5702 35.0764 25.5702 34.7084 25.7737L34.1084 26.1026C33.7484 26.2983 33.3404 26.4 32.9324 26.4V26.3922ZM30.6124 24.4585C31.0364 24.4585 31.4604 24.5681 31.8364 24.7873L32.3084 25.0613C32.6764 25.2727 33.1404 25.2805 33.5164 25.077L34.1164 24.7481C34.8444 24.3489 35.7484 24.3567 36.4764 24.7481L36.9804 25.0222C37.3884 25.2492 37.8764 25.2257 38.2604 24.9674L39.0284 24.4585C39.6284 24.0592 40.3964 24.0122 41.0444 24.341C41.2684 24.4585 41.4524 24.4663 41.6124 24.4037C41.6604 24.388 41.6924 24.341 41.6924 24.2862V8.61273C41.6924 7.16438 40.4844 5.98222 39.0044 5.98222H26.8044C25.3244 5.98222 24.1164 7.16438 24.1164 8.61273V24.3019C24.1164 24.3489 24.1484 24.3958 24.1964 24.4193L24.3404 24.4741C24.5164 24.5446 24.7084 24.5289 24.8684 24.4428C25.5804 24.0435 26.4044 24.0827 27.0204 24.5054L27.6764 24.9595C28.0604 25.2257 28.5644 25.2492 28.9724 25.0222L29.4364 24.7716C29.8044 24.5681 30.2124 24.4663 30.6204 24.4663L30.6124 24.4585Z" fill="#070707"/>
<path d="M28.4135 11.7051H27.4535C27.1255 11.7051 26.8535 11.4389 26.8535 11.1179C26.8535 10.7969 27.1255 10.5308 27.4535 10.5308H28.4135C28.7415 10.5308 29.0135 10.7969 29.0135 11.1179C29.0135 11.4389 28.7415 11.7051 28.4135 11.7051Z" fill="#5D86FE"/>
<path d="M38.5089 11.7051H30.9809C30.6529 11.7051 30.3809 11.4389 30.3809 11.1179C30.3809 10.7969 30.6529 10.5308 30.9809 10.5308H38.5009C38.8289 10.5308 39.1009 10.7969 39.1009 11.1179C39.1009 11.4389 38.8289 11.7051 38.5009 11.7051H38.5089Z" fill="#5D86FE"/>
<path d="M28.4135 15.283H27.4535C27.1255 15.283 26.8535 15.0168 26.8535 14.6958C26.8535 14.3748 27.1255 14.1086 27.4535 14.1086H28.4135C28.7415 14.1086 29.0135 14.3748 29.0135 14.6958C29.0135 15.0168 28.7415 15.283 28.4135 15.283Z" fill="#5D86FE"/>
<path d="M38.5089 15.283H30.9809C30.6529 15.283 30.3809 15.0168 30.3809 14.6958C30.3809 14.3748 30.6529 14.1086 30.9809 14.1086H38.5009C38.8289 14.1086 39.1009 14.3748 39.1009 14.6958C39.1009 15.0168 38.8289 15.283 38.5009 15.283H38.5089Z" fill="#5D86FE"/>
<path d="M28.4135 18.853H27.4535C27.1255 18.853 26.8535 18.5869 26.8535 18.2659C26.8535 17.9449 27.1255 17.6787 27.4535 17.6787H28.4135C28.7415 17.6787 29.0135 17.9449 29.0135 18.2659C29.0135 18.5869 28.7415 18.853 28.4135 18.853Z" fill="#5D86FE"/>
<path d="M38.5089 18.853H30.9809C30.6529 18.853 30.3809 18.5869 30.3809 18.2659C30.3809 17.9449 30.6529 17.6787 30.9809 17.6787H38.5009C38.8289 17.6787 39.1009 17.9449 39.1009 18.2659C39.1009 18.5869 38.8289 18.853 38.5009 18.853H38.5089Z" fill="#5D86FE"/>
</svg>
