<svg width="65" height="32" viewBox="0 0 65 32" fill="none" xmlns="http://www.w3.org/2000/svg">
<path d="M22.7005 27.1922C22.5568 27.1922 22.4131 27.137 22.3014 27.0423C22.1338 26.8923 22.07 26.6714 22.1178 26.4583L23.3151 21.7943C23.3949 21.4707 23.3071 21.1787 23.2113 20.9972C22.2535 19.0717 21.9023 16.9172 22.2056 14.7549C22.8681 10.0199 26.6832 6.29505 31.48 5.68739C34.8562 5.26913 38.1445 6.36607 40.5309 8.71779C42.9174 11.0695 44.0348 14.3288 43.6118 17.6591C43.0052 22.4098 39.0783 26.2847 34.2655 26.8686C32.0308 27.1449 29.8199 26.7424 27.8644 25.7165C27.5931 25.5744 27.2658 25.5586 26.9625 25.6691L22.908 27.1606C22.8362 27.1843 22.7723 27.2001 22.7005 27.2001V27.1922ZM27.3616 24.4064C27.7288 24.4064 28.0959 24.4933 28.4152 24.6669C30.1551 25.5744 32.1185 25.9295 34.1139 25.6849C38.3919 25.164 41.8798 21.7233 42.4225 17.5012C42.7976 14.534 41.8 11.6377 39.6849 9.54642C37.5698 7.45512 34.6407 6.46866 31.6317 6.84746C27.4334 7.37621 23.9695 10.7617 23.3948 14.9049C23.1235 16.8304 23.4348 18.756 24.2888 20.4606C24.5522 20.9815 24.616 21.5575 24.4803 22.0784L23.5625 25.6454L26.5475 24.5485C26.8109 24.4538 27.0902 24.3986 27.3696 24.3986L27.3616 24.4064Z" fill="#070707"/>
<path d="M28.5105 17.3354C29.0395 17.3354 29.4683 16.9114 29.4683 16.3884C29.4683 15.8654 29.0395 15.4414 28.5105 15.4414C27.9815 15.4414 27.5527 15.8654 27.5527 16.3884C27.5527 16.9114 27.9815 17.3354 28.5105 17.3354Z" fill="#5D86FE"/>
<path d="M32.9011 17.3354C33.4301 17.3354 33.8589 16.9114 33.8589 16.3884C33.8589 15.8654 33.4301 15.4414 32.9011 15.4414C32.3722 15.4414 31.9434 15.8654 31.9434 16.3884C31.9434 16.9114 32.3722 17.3354 32.9011 17.3354Z" fill="#5D86FE"/>
<path d="M37.2917 17.3354C37.8207 17.3354 38.2495 16.9114 38.2495 16.3884C38.2495 15.8654 37.8207 15.4414 37.2917 15.4414C36.7628 15.4414 36.334 15.8654 36.334 16.3884C36.334 16.9114 36.7628 17.3354 37.2917 17.3354Z" fill="#5D86FE"/>
</svg>
