<svg width="186" height="159" viewBox="0 0 186 159" fill="none" xmlns="http://www.w3.org/2000/svg">
<path d="M88.2048 0V62.4094C88.2048 84.5862 70.2294 102.562 48.0538 102.562C40.7283 102.562 34.1194 101.348 28.2072 98.8995C22.295 96.4509 17.2388 92.9473 13.0386 88.3487C8.83838 83.7501 5.61358 78.3353 3.36417 72.0844C1.11476 65.8335 0 58.9057 0 51.2812C0 43.6567 1.13466 36.7091 3.36417 30.3985C5.61358 24.1078 8.81851 18.6731 12.959 14.1342C17.1194 9.59533 22.1557 6.09164 28.1276 3.66295C34.0796 1.21435 40.7283 0 48.0538 0L88.2048 0Z" fill="#84DACF"/>
<path d="M157.3 159C143.824 159 132.418 149.942 128.854 137.579C127.68 133.498 130.745 129.397 134.985 129.397H136.598C139.524 129.397 141.833 131.448 142.769 134.235C144.799 140.307 150.532 144.706 157.3 144.706C164.069 144.706 169.802 140.307 171.832 134.235C172.748 131.468 175.077 129.397 178.003 129.397H179.615C183.856 129.397 186.921 133.498 185.747 137.579C182.183 149.942 170.777 159 157.3 159Z" fill="#FFC748"/>
<path d="M153.818 119.562C153.818 110.186 146.194 102.562 136.818 102.562C127.442 102.562 119.818 110.186 119.818 119.562C119.818 126.012 123.48 131.586 128.795 134.453C126.705 140.425 121.032 144.705 114.363 144.705C107.695 144.705 101.862 140.306 99.8318 134.234C98.9161 131.467 96.587 129.397 93.6608 129.397H92.0285C87.7885 129.397 84.7229 133.497 85.8973 137.578C89.4606 149.941 100.867 158.999 114.343 158.999C127.82 158.999 139.226 149.941 142.79 137.578C143.009 136.822 142.949 136.105 142.889 135.369C149.259 132.9 153.798 126.769 153.798 119.562H153.818Z" fill="#84DACF"/>
</svg>
