<svg width="95" height="25" viewBox="0 0 95 25" fill="none" xmlns="http://www.w3.org/2000/svg">
<g clip-path="url(#clip0_3060_4464)">
<path d="M16.7436 0V11.9192C16.7436 16.1563 13.3328 19.5882 9.12175 19.5882C7.73119 19.5882 6.47618 19.355 5.35236 18.8886C4.23291 18.4222 3.27089 17.749 2.47503 16.8735C1.67917 15.9979 1.06697 14.9595 0.638435 13.7672C0.214269 12.5748 0 11.2504 0 9.79409C0 8.33773 0.214269 7.00898 0.638435 5.80781C1.06697 4.60665 1.6748 3.56829 2.46191 2.70151C3.24902 1.83474 4.21105 1.16596 5.33924 0.699578C6.47181 0.233193 7.73119 0 9.12175 0L16.7436 0Z" fill="white"/>
<path d="M35.052 18.5894C32.4939 18.5894 30.3293 16.8602 29.6516 14.4975C29.4285 13.7187 30.0101 12.9355 30.8147 12.9355H31.1208C31.6762 12.9355 32.1178 13.3271 32.2928 13.8595C32.6776 15.0211 33.7664 15.8615 35.0476 15.8615C36.3289 15.8615 37.4177 15.0211 37.8025 13.8595C37.9774 13.3315 38.4191 12.9355 38.9745 12.9355H39.2806C40.0852 12.9355 40.6667 13.7187 40.4437 14.4975C39.7703 16.8558 37.6014 18.5894 35.0433 18.5894H35.052Z" fill="#FFC748"/>
<path d="M34.3918 11.0576C34.3918 9.2669 32.9444 7.81055 31.1647 7.81055C29.3849 7.81055 27.9375 9.2669 27.9375 11.0576C27.9375 12.2896 28.6241 13.3676 29.6342 13.9176C29.2319 15.0483 28.1605 15.8623 26.9012 15.8623C25.6418 15.8623 24.5311 15.0219 24.1463 13.8604C23.9714 13.3324 23.5297 12.9364 22.9743 12.9364H22.6682C21.8636 12.9364 21.2821 13.7196 21.5051 14.4983C22.1785 16.8567 24.3474 18.5902 26.9055 18.5902C29.4636 18.5902 31.6282 16.8567 32.306 14.4983C32.3453 14.3575 32.3541 14.2123 32.341 14.0759C33.5391 13.6008 34.3918 12.4304 34.3918 11.0576Z" fill="white"/>
<path d="M56.3885 18.8531C55.6407 18.8531 55.0329 18.2416 55.0329 17.4892V13.0805C55.0329 11.3558 53.8741 9.77183 52.1905 9.44184C49.9254 9.00186 47.9358 10.7398 47.9358 12.9397V17.4892C47.9358 18.2416 47.3279 18.8531 46.5802 18.8531C45.8324 18.8531 45.2246 18.2416 45.2246 17.4892V13.2213C45.2246 9.93463 47.6078 6.99112 50.8568 6.66993C54.5869 6.30034 57.7441 9.25705 57.7441 12.9397V17.4892C57.7441 18.2416 57.1362 18.8531 56.3885 18.8531Z" fill="white"/>
<path d="M66.9038 6.34375C63.4362 6.34375 60.6113 9.18166 60.6113 12.6751C60.6113 16.1686 63.4318 19.0065 66.9038 19.0065C68.2332 19.0065 69.4663 18.5842 70.4808 17.8714V18.8569C70.4808 20.5113 69.3658 21.9105 67.8528 22.3284C67.2712 22.4912 66.9038 23.0676 66.9038 23.6748C66.9038 24.5592 67.7522 25.1927 68.6005 24.9552C71.2505 24.2072 73.1964 21.7565 73.1964 18.8569V12.6751C73.1964 9.18606 70.3759 6.34375 66.9038 6.34375ZM66.9038 16.2742C64.9317 16.2742 63.3269 14.6595 63.3269 12.6751C63.3269 10.6908 64.9317 9.07606 66.9038 9.07606C68.876 9.07606 70.4808 10.6908 70.4808 12.6751C70.4808 14.6595 68.876 16.2742 66.9038 16.2742Z" fill="white"/>
<path d="M79.0295 2.41474C79.0295 1.66145 78.4226 1.05078 77.6739 1.05078C76.9253 1.05078 76.3184 1.66145 76.3184 2.41474V17.4887C76.3184 18.2419 76.9253 18.8526 77.6739 18.8526C78.4226 18.8526 79.0295 18.2419 79.0295 17.4887V2.41474Z" fill="white"/>
<path d="M94.865 14.0539C94.9524 13.6183 95.0005 13.1343 95.0005 12.69C95.0005 8.58929 91.2574 5.34659 87.0288 6.24416C84.5538 6.76775 82.5554 8.78288 82.035 11.2732C81.1473 15.5279 84.3658 19.2897 88.4456 19.2897C90.1729 19.2897 91.7821 18.6254 92.9846 17.4594C93.6231 16.839 93.4963 15.7699 92.7398 15.3079C92.1975 14.9779 91.5241 15.0967 91.0606 15.5323C90.3609 16.1878 89.4383 16.5574 88.45 16.5574C86.8102 16.5574 85.4152 15.5147 84.8643 14.0539H94.8737H94.865ZM88.4412 8.82248C90.0811 8.82248 91.476 9.86525 92.027 11.326H84.8555C85.4065 9.86525 86.8014 8.82248 88.4412 8.82248Z" fill="white"/>
</g>
<defs>
<clipPath id="clip0_3060_4464">
<rect width="95" height="25" fill="white"/>
</clipPath>
</defs>
</svg>
