<svg width="32" height="32" viewBox="0 0 32 32" fill="none" xmlns="http://www.w3.org/2000/svg">
<path d="M25.4462 16.4873C25.3073 16.4873 25.1683 16.4364 25.0587 16.3273L16 7.30909L6.93402 16.3273C6.72199 16.5382 6.37105 16.5382 6.15902 16.3273C5.94699 16.1164 5.94699 15.7673 6.15902 15.5564L15.6125 6.15273C15.8172 5.94909 16.1828 5.94909 16.3875 6.15273L25.841 15.5564C26.053 15.7673 26.053 16.1164 25.841 16.3273C25.7313 16.4364 25.5924 16.4873 25.4535 16.4873H25.4462Z" fill="white"/>
<path d="M23.3699 25.9996H8.63038C8.33061 25.9996 8.08203 25.7523 8.08203 25.4542V13.8687C8.08203 13.5705 8.33061 13.3232 8.63038 13.3232C8.93014 13.3232 9.17872 13.5705 9.17872 13.8687V24.9087H22.8216V14.036C22.8216 13.7378 23.0701 13.4905 23.3699 13.4905C23.6697 13.4905 23.9183 13.7378 23.9183 14.036V25.4542C23.9183 25.7523 23.6697 25.9996 23.3699 25.9996Z" fill="white"/>
</svg>
