<svg width="20" height="20" viewBox="0 0 20 20" fill="none" xmlns="http://www.w3.org/2000/svg">
<path d="M19.4462 10.4873C19.3073 10.4873 19.1683 10.4364 19.0587 10.3273L10 1.30909L0.934016 10.3273C0.721989 10.5382 0.371047 10.5382 0.15902 10.3273C-0.0530068 10.1164 -0.0530068 9.76728 0.15902 9.55637L9.6125 0.152727C9.81722 -0.0509091 10.1828 -0.0509091 10.3875 0.152727L19.841 9.55637C20.053 9.76728 20.053 10.1164 19.841 10.3273C19.7313 10.4364 19.5924 10.4873 19.4535 10.4873H19.4462Z" fill="#070707"/>
<path d="M17.3699 19.9997H2.63038C2.33061 19.9997 2.08203 19.7524 2.08203 19.4542V7.86876C2.08203 7.57058 2.33061 7.3233 2.63038 7.3233C2.93014 7.3233 3.17872 7.57058 3.17872 7.86876V18.9088H16.8216V8.03603C16.8216 7.73785 17.0701 7.49058 17.3699 7.49058C17.6697 7.49058 17.9183 7.73785 17.9183 8.03603V19.4542C17.9183 19.7524 17.6697 19.9997 17.3699 19.9997Z" fill="#070707"/>
</svg>
