<svg width="152" height="39" viewBox="0 0 152 39" fill="none" xmlns="http://www.w3.org/2000/svg">
<path d="M26.7895 0V18.5924C26.7895 25.2016 21.3323 30.5549 14.5947 30.5549C12.3698 30.5549 10.3618 30.1912 8.5637 29.4637C6.7726 28.7362 5.23337 27.6861 3.96001 26.3203C2.68665 24.9546 1.70714 23.3348 1.02149 21.4749C0.342828 19.615 0 17.5492 0 15.2775C0 13.0057 0.342828 10.9331 1.02149 9.05941C1.70714 7.18576 2.67965 5.56605 3.93902 4.214C5.19839 2.86195 6.73762 1.81875 8.54271 1.09125C10.3548 0.363757 12.3698 0 14.5947 0H26.7895Z" fill="#5D86FE"/>
<path d="M56.0828 28.9971C51.9898 28.9971 48.5265 26.2998 47.4421 22.6143C47.0853 21.3995 48.0158 20.1779 49.3032 20.1779H49.7929C50.6815 20.1779 51.3881 20.7887 51.668 21.6192C52.2837 23.431 54.0258 24.7419 56.0758 24.7419C58.1257 24.7419 59.8679 23.431 60.4835 21.6192C60.7634 20.7956 61.47 20.1779 62.3586 20.1779H62.8484C64.1357 20.1779 65.0662 21.3995 64.7094 22.6143C63.632 26.293 60.1617 28.9971 56.0688 28.9971H56.0828Z" fill="#FFC748"/>
<path d="M55.0266 17.2471C55.0266 14.4538 52.7107 12.1821 49.8632 12.1821C47.0156 12.1821 44.6997 14.4538 44.6997 17.2471C44.6997 19.1688 45.7982 20.8503 47.4144 21.7082C46.7707 23.472 45.0566 24.7417 43.0416 24.7417C41.0266 24.7417 39.2495 23.4308 38.6338 21.619C38.3539 20.7954 37.6473 20.1777 36.7587 20.1777H36.269C34.9816 20.1777 34.0511 21.3993 34.4079 22.6141C35.4854 26.2928 38.9556 28.9969 43.0486 28.9969C47.1415 28.9969 50.6048 26.2928 51.6892 22.6141C51.7522 22.3945 51.7662 22.168 51.7452 21.9553C53.6622 21.214 55.0266 19.3884 55.0266 17.2471Z" fill="#5D86FE"/>
<path d="M90.2204 29.4084C89.024 29.4084 88.0515 28.4544 88.0515 27.2808V20.4039C88.0515 17.7135 86.1974 15.2428 83.5038 14.728C79.8796 14.0417 76.6962 16.7527 76.6962 20.1843V27.2808C76.6962 28.4544 75.7237 29.4084 74.5273 29.4084C73.3309 29.4084 72.3584 28.4544 72.3584 27.2808V20.6235C72.3584 15.4967 76.1715 10.9052 81.3699 10.4042C87.3379 9.82772 92.3893 14.4398 92.3893 20.1843V27.2808C92.3893 28.4544 91.4168 29.4084 90.2204 29.4084Z" fill="#5D86FE"/>
<path d="M107.046 9.89023C101.498 9.89023 96.9785 14.317 96.9785 19.7664C96.9785 25.2157 101.491 29.6425 107.046 29.6425C109.173 29.6425 111.146 28.9836 112.77 27.8718V29.4091C112.77 31.9897 110.985 34.1722 108.565 34.8242C107.634 35.0781 107.046 35.9772 107.046 36.9243C107.046 38.3038 108.404 39.2921 109.761 38.9215C114.001 37.7548 117.114 33.932 117.114 29.4091V19.7664C117.114 14.3238 112.602 9.89023 107.046 9.89023ZM107.046 25.3804C103.891 25.3804 101.323 22.8617 101.323 19.7664C101.323 16.6711 103.891 14.1523 107.046 14.1523C110.202 14.1523 112.77 16.6711 112.77 19.7664C112.77 22.8617 110.202 25.3804 107.046 25.3804Z" fill="#5D86FE"/>
<path d="M126.447 3.76736C126.447 2.59233 125.476 1.63977 124.278 1.63977C123.08 1.63977 122.109 2.59233 122.109 3.76736V27.2806C122.109 28.4557 123.08 29.4082 124.278 29.4082C125.476 29.4082 126.447 28.4557 126.447 27.2806V3.76736Z" fill="#5D86FE"/>
<path d="M151.782 21.9208C151.922 21.2413 151.998 20.4864 151.998 19.7932C151.998 13.3967 146.009 8.3385 139.244 9.73859C135.284 10.5553 132.086 13.6987 131.254 17.5832C129.834 24.2199 134.983 30.0879 141.511 30.0879C144.274 30.0879 146.849 29.0516 148.773 27.2329C149.795 26.2652 149.592 24.5974 148.381 23.8768C147.514 23.362 146.436 23.5473 145.695 24.2268C144.575 25.2494 143.099 25.8259 141.518 25.8259C138.894 25.8259 136.662 24.1993 135.781 21.9208H151.796H151.782ZM141.504 13.7604C144.127 13.7604 146.359 15.387 147.241 17.6656H135.767C136.648 15.387 138.88 13.7604 141.504 13.7604Z" fill="#5D86FE"/>
</svg>
