<svg width="20" height="20" viewBox="0 0 20 20" fill="none" xmlns="http://www.w3.org/2000/svg">
<path d="M10.5015 18C10.1714 18 9.86691 17.8223 9.69111 17.5216L5.86618 10.9839C5.83617 10.9338 5.80615 10.8791 5.77185 10.8244C5.27015 9.92691 5 8.89272 5 7.84486C5 4.68305 7.3284 2.11806 10.3043 2.00417C11.788 1.94494 13.1859 2.51898 14.2707 3.61241C15.3556 4.70583 15.9688 6.16372 15.9988 7.7264C16.0202 8.81982 15.7544 9.89046 15.2312 10.8244L11.312 17.5216C11.1362 17.8223 10.8317 18 10.5015 18ZM10.5015 2.9108C10.4458 2.9108 10.3943 2.9108 10.3386 2.9108C7.8301 3.00647 5.86189 5.17053 5.86189 7.8403C5.86189 8.7287 6.08487 9.59889 6.51367 10.3552C6.5394 10.4007 6.56513 10.4463 6.59515 10.4918L10.4244 17.0341C10.4715 17.1162 10.5444 17.1162 10.5873 17.0341L14.5023 10.3461C14.9397 9.56699 15.1626 8.66036 15.1455 7.74007C15.1198 6.42341 14.6052 5.19331 13.6875 4.26846C12.8085 3.38461 11.685 2.90624 10.5015 2.90624V2.9108Z" fill="#BEBEBE"/>
<path d="M13.0862 7.74895L13.1634 7.66695C13.4336 7.37993 13.4379 6.90611 13.1634 6.62364C12.889 6.34117 12.473 6.35484 12.2115 6.63275L11.9113 6.95167C11.9113 6.95167 11.8813 6.97445 11.8599 6.97445H9.14125C9.14125 6.97445 9.10265 6.96534 9.08979 6.95167L8.80249 6.64642C8.53235 6.3594 8.08639 6.35484 7.82053 6.64642C7.55467 6.938 7.56754 7.37993 7.82911 7.65784L7.91487 7.74895C7.91487 7.74895 7.91916 7.76262 7.91487 7.77173L7.82911 7.86285C7.56325 8.14532 7.56325 8.60091 7.82911 8.88338C8.09497 9.16585 8.52377 9.16585 8.78963 8.88338L9.11552 8.53713C9.11552 8.53713 9.14553 8.51434 9.16697 8.51434H11.8384C11.8384 8.51434 11.877 8.52346 11.8899 8.53713L12.2158 8.88338C12.4816 9.16585 12.9104 9.16585 13.1763 8.88338C13.4421 8.60091 13.4421 8.14532 13.1763 7.86285L13.0905 7.77173C13.0905 7.77173 13.0862 7.75807 13.0905 7.74895H13.0862Z" fill="#BEBEBE"/>
</svg>
