<svg width="20" height="20" viewBox="0 0 20 20" fill="none" xmlns="http://www.w3.org/2000/svg">
<path d="M14.2594 17C12.9319 17 10.3542 16.4838 6.86705 13.3594C6.51872 13.0473 6.19361 12.7006 5.8685 12.3C4.72675 10.89 2.83028 8.12388 3.01219 5.48493C3.03541 5.1305 3.18635 4.79918 3.43406 4.55262L4.57581 3.41999C4.8506 3.14647 5.21829 2.99622 5.60145 3.00007C5.98848 3.00007 6.3523 3.15417 6.61935 3.43155L7.71853 4.54877C8.26812 5.10738 8.26425 6.01271 7.70692 6.56362L7.49018 6.77936C7.28505 6.98354 7.23473 7.29174 7.36633 7.54986C7.96236 8.71331 9.64209 11.5102 12.3746 12.3462C12.6068 12.4155 12.8583 12.35 13.0325 12.1767L13.1138 12.0958C13.6634 11.5487 14.569 11.541 15.1302 12.0765L16.5584 13.448C17.1119 13.9797 17.1506 14.8465 16.6435 15.4205L15.7069 16.4876C15.4786 16.7496 15.1651 16.9191 14.8283 16.9653C14.6774 16.9846 14.4839 17 14.2517 17H14.2594ZM5.59371 3.77057C5.41567 3.77057 5.24925 3.83991 5.1254 3.96319L3.98365 5.09582C3.86754 5.2114 3.79787 5.3655 3.78626 5.53501C3.61596 8.0006 5.60919 10.7513 6.47228 11.8184C6.77029 12.1882 7.07218 12.5042 7.38955 12.7892C11.2405 16.2372 13.8104 16.322 14.7355 16.2025C14.8864 16.1833 15.0257 16.1062 15.1302 15.9829L16.0669 14.9158C16.2991 14.65 16.2836 14.2493 16.0282 14.0028L14.6 12.6313C14.3407 12.3809 13.9227 12.3886 13.6672 12.639L13.586 12.7199C13.2067 13.0974 12.6571 13.2361 12.1539 13.082C9.24731 12.196 7.47857 9.45298 6.68128 7.90043C6.39874 7.34567 6.50324 6.67534 6.94446 6.23616L7.1612 6.02042C7.41664 5.76616 7.42051 5.34623 7.16507 5.08812L6.06589 3.9709C5.94204 3.84377 5.77174 3.77442 5.59371 3.77057Z" fill="#BEBEBE"/>
</svg>
