<svg width="20" height="20" viewBox="0 0 20 20" fill="none" xmlns="http://www.w3.org/2000/svg">
<path d="M9.99609 17.9958C5.58638 17.9958 1.99609 14.4055 1.99609 9.99578C1.99609 5.58606 5.58638 2 9.99609 2C14.4058 2 17.9961 5.59029 17.9961 10C17.9961 14.4097 14.4058 18 9.99609 18V17.9958ZM9.99609 2.84477C6.051 2.84477 2.84509 6.05491 2.84509 10C2.84509 13.9451 6.05523 17.1552 10.0003 17.1552C13.9454 17.1552 17.1555 13.9451 17.1555 10C17.1555 6.05491 13.9412 2.84477 9.99609 2.84477Z" fill="#BEBEBE"/>
<path d="M12.7126 12.7498C12.6492 12.7498 12.5901 12.7372 12.5267 12.7076L9.81076 11.3898C9.66714 11.3179 9.57422 11.1701 9.57422 11.0096V6.82375C9.57422 6.59144 9.76429 6.40137 9.99661 6.40137C10.2289 6.40137 10.419 6.59144 10.419 6.82375V10.7435L12.8984 11.9431C13.1096 12.0445 13.1941 12.2979 13.0927 12.5091C13.0209 12.6611 12.8688 12.7456 12.7126 12.7456V12.7498Z" fill="#BEBEBE"/>
</svg>
