<svg width="42" height="47" viewBox="0 0 42 47" fill="none" xmlns="http://www.w3.org/2000/svg">
<path d="M34.6482 0H7.35613C3.29274 0 0 3.3173 0 7.411V43.5264C0 44.1881 0.398457 44.788 1.00709 45.0394L1.32235 45.1674C2.08862 45.485 2.95997 45.4276 3.67807 45.013L3.80942 44.938C4.83403 44.3513 6.09946 44.4086 7.06276 45.0924L8.52523 46.129C9.80379 47.0378 11.4896 47.126 12.8557 46.354L13.8891 45.7673C15.1501 45.0571 16.687 45.0703 17.9349 45.807L18.999 46.4378C20.2381 47.1701 21.7706 47.1877 23.0273 46.4863L24.3716 45.732C25.6063 45.0394 27.1038 45.0439 28.3342 45.7408L29.4596 46.3761C30.8082 47.1392 32.4677 47.0642 33.7419 46.1864L35.4583 45.0086C36.3866 44.3733 37.5863 44.3028 38.5803 44.8277L38.7335 44.9115C39.4297 45.2776 40.2442 45.3218 40.9754 45.0306C41.5928 44.7836 42 44.1792 42 43.5087V7.411C42 3.3173 38.7073 0 34.6439 0H34.6482ZM29.893 21.3904H27.8088C27.7256 21.3904 27.6424 21.4257 27.5811 21.4831L19.0033 30.1248C18.942 30.1866 18.9114 30.266 18.9114 30.3542V32.454C18.9114 34.17 17.5321 35.5595 15.8288 35.5595C14.1255 35.5595 12.7462 34.17 12.7462 32.454V31.8849C12.7462 31.8496 12.72 31.8232 12.6849 31.8232H12.1201C10.4387 31.8232 9.06818 30.4645 9.03753 28.775C9.00688 27.0325 10.4606 25.6076 12.1902 25.6076H14.0467C14.1299 25.6076 14.2131 25.5723 14.2744 25.515L23.0098 16.7144C23.0711 16.6527 23.1018 16.5733 23.1018 16.4851V14.5441C23.1018 12.8501 24.4504 11.4694 26.1274 11.4385C27.857 11.4076 29.2713 12.8722 29.2713 14.6147V15.1131C29.2713 15.1484 29.2975 15.1749 29.3326 15.1749H29.8974C31.6007 15.1749 32.98 16.5645 32.98 18.2805C32.98 19.9965 31.6007 21.386 29.8974 21.386L29.893 21.3904Z" fill="#E6E6E6"/>
</svg>
