<svg width="14" height="13" viewBox="0 0 14 13" fill="none" xmlns="http://www.w3.org/2000/svg">
<path d="M10.8209 3.60062L10.821 3.60064L12.3073 3.80824C13.6997 4.00312 14.2273 5.63031 13.2427 6.55435L12.1673 7.56361L12.1673 7.56361C11.6511 8.04807 11.4133 8.74846 11.5356 9.43784L11.5357 9.43803L11.7897 10.8631C11.7897 10.8631 11.7897 10.8631 11.7897 10.8631C12.0206 12.1599 10.5965 13.1939 9.3425 12.5588L9.34237 12.5587L8.01293 11.8863L8.01285 11.8862C7.37818 11.5655 6.62166 11.5655 5.98698 11.8862L5.9869 11.8863L4.65746 12.5587L4.65744 12.5587C3.4025 13.1936 1.97877 12.1597 2.21014 10.8632L2.21015 10.8631L2.46416 9.43812C2.58724 8.74896 2.34859 8.04795 1.83256 7.56361L1.83255 7.56361L0.757136 6.55435C-0.227342 5.63042 0.300546 4.00315 1.69313 3.80824L3.17947 3.60064L3.17955 3.60062C3.88743 3.50152 4.50375 3.0733 4.82383 2.44858C4.82384 2.44857 4.82384 2.44856 4.82384 2.44855L5.48825 1.15211C6.10469 -0.0507047 7.89574 -0.0507049 8.51218 1.15211L9.17659 2.44855C9.17659 2.44856 9.17659 2.44857 9.1766 2.44858C9.49668 3.0733 10.113 3.50152 10.8209 3.60062Z" stroke="#E6E6E6" stroke-width="0.5"/>
</svg>
