<svg width="14" height="13" viewBox="0 0 14 13" fill="none" xmlns="http://www.w3.org/2000/svg">
<path d="M8.73466 1.03809L9.39908 2.33455C9.68067 2.88417 10.2253 3.2648 10.8555 3.35304L12.342 3.56066C13.9284 3.78269 14.5617 5.65933 13.4138 6.73664L12.3384 7.7459C11.8824 8.17383 11.6745 8.78976 11.7818 9.39416L12.0358 10.8192C12.3066 12.34 10.6482 13.5004 9.22953 12.7818L7.90009 12.1094C7.33632 11.8245 6.66351 11.8245 6.09974 12.1094L4.7703 12.7818C3.35099 13.4998 1.69263 12.34 1.96403 10.8192L2.21805 9.39416C2.3259 8.79034 2.1174 8.17383 1.66147 7.7459L0.586056 6.73664C-0.561854 5.65933 0.072013 3.78269 1.65848 3.56066L3.14489 3.35304C3.77516 3.2648 4.31976 2.88417 4.60135 2.33455L5.26577 1.03809C5.97512 -0.346031 8.02531 -0.346031 8.73466 1.03809Z" fill="#FFC748"/>
</svg>
