<svg width="33" height="32" viewBox="0 0 33 32" fill="none" xmlns="http://www.w3.org/2000/svg">
<path d="M16.8969 13.967C14.5823 13.967 12.6992 12.0903 12.6992 9.78356C12.6992 7.47679 14.5823 5.6001 16.8969 5.6001C19.2116 5.6001 21.0946 7.47679 21.0946 9.78356C21.0946 12.0903 19.2116 13.967 16.8969 13.967ZM16.8969 6.76521C15.2335 6.76521 13.8761 8.11799 13.8761 9.77574C13.8761 11.4335 15.2335 12.7863 16.8969 12.7863C18.5603 12.7863 19.9177 11.4335 19.9177 9.77574C19.9177 8.11799 18.5603 6.76521 16.8969 6.76521Z" fill="#BEBEBE"/>
<path d="M23.5736 26.4H10.235C8.39902 26.4 6.90039 24.9143 6.90039 23.0767C6.90039 19.902 9.48964 17.3293 12.6674 17.3293H21.1334C24.319 17.3293 26.9004 19.9098 26.9004 23.0767C26.9004 24.9065 25.4018 26.4 23.5658 26.4H23.5736ZM12.6674 18.5023C10.133 18.5023 8.07732 20.5588 8.07732 23.0767C8.07732 24.2575 9.04241 25.2271 10.235 25.2271H23.5736C24.7584 25.2271 25.7313 24.2653 25.7313 23.0767C25.7313 20.551 23.6677 18.5023 21.1413 18.5023H12.6752H12.6674Z" fill="#BEBEBE"/>
</svg>
