<svg width="33" height="32" viewBox="0 0 33 32" fill="none" xmlns="http://www.w3.org/2000/svg">
<path d="M16.9324 26.3922C16.5084 26.3922 16.0844 26.2826 15.7084 26.0712L15.2284 25.7972C14.8524 25.5858 14.3884 25.578 14.0124 25.7894L13.5484 26.0399C12.7404 26.4862 11.7324 26.4314 10.9724 25.9068L10.3164 25.4527C10.0764 25.2883 9.75639 25.2727 9.50839 25.4136C8.96439 25.7189 8.38839 25.7581 7.86839 25.5467L7.72439 25.4919C7.22839 25.2883 6.90039 24.8186 6.90039 24.2941V8.61273C6.91639 6.51458 8.66039 4.80005 10.8044 4.80005H23.0124C25.1564 4.80005 26.9004 6.50675 26.9004 8.60491V24.2941C26.9004 24.8264 26.5724 25.304 26.0604 25.4997C25.5724 25.6876 25.0284 25.6563 24.5564 25.4214C24.2364 25.257 23.9404 25.2727 23.7084 25.4293L22.9404 25.9381C22.1724 26.447 21.2044 26.494 20.3964 26.0477L19.8924 25.7737C19.5244 25.5702 19.0764 25.5702 18.7084 25.7737L18.1084 26.1026C17.7484 26.2983 17.3404 26.4 16.9324 26.4V26.3922ZM14.6124 24.4585C15.0364 24.4585 15.4604 24.5681 15.8364 24.7873L16.3084 25.0613C16.6764 25.2727 17.1404 25.2805 17.5164 25.077L18.1164 24.7481C18.8444 24.3489 19.7484 24.3567 20.4764 24.7481L20.9804 25.0222C21.3884 25.2492 21.8764 25.2257 22.2604 24.9674L23.0284 24.4585C23.6284 24.0592 24.3964 24.0122 25.0444 24.341C25.2684 24.4585 25.4524 24.4663 25.6124 24.4037C25.6604 24.388 25.6924 24.341 25.6924 24.2862V8.61273C25.6924 7.16438 24.4844 5.98222 23.0044 5.98222H10.8044C9.32439 5.98222 8.11639 7.16438 8.11639 8.61273V24.3019C8.11639 24.3489 8.14839 24.3958 8.19639 24.4193L8.34039 24.4741C8.51639 24.5446 8.70839 24.5289 8.86839 24.4428C9.58039 24.0435 10.4044 24.0827 11.0204 24.5054L11.6764 24.9595C12.0604 25.2257 12.5644 25.2492 12.9724 25.0222L13.4364 24.7716C13.8044 24.5681 14.2124 24.4663 14.6204 24.4663L14.6124 24.4585Z" fill="#070707"/>
<path d="M12.4135 11.7051H11.4535C11.1255 11.7051 10.8535 11.4389 10.8535 11.1179C10.8535 10.7969 11.1255 10.5308 11.4535 10.5308H12.4135C12.7415 10.5308 13.0135 10.7969 13.0135 11.1179C13.0135 11.4389 12.7415 11.7051 12.4135 11.7051Z" fill="#5D86FE"/>
<path d="M22.5089 11.7051H14.9809C14.6529 11.7051 14.3809 11.4389 14.3809 11.1179C14.3809 10.7969 14.6529 10.5308 14.9809 10.5308H22.5009C22.8289 10.5308 23.1009 10.7969 23.1009 11.1179C23.1009 11.4389 22.8289 11.7051 22.5009 11.7051H22.5089Z" fill="#5D86FE"/>
<path d="M12.4135 15.283H11.4535C11.1255 15.283 10.8535 15.0168 10.8535 14.6958C10.8535 14.3748 11.1255 14.1086 11.4535 14.1086H12.4135C12.7415 14.1086 13.0135 14.3748 13.0135 14.6958C13.0135 15.0168 12.7415 15.283 12.4135 15.283Z" fill="#5D86FE"/>
<path d="M22.5089 15.283H14.9809C14.6529 15.283 14.3809 15.0168 14.3809 14.6958C14.3809 14.3748 14.6529 14.1086 14.9809 14.1086H22.5009C22.8289 14.1086 23.1009 14.3748 23.1009 14.6958C23.1009 15.0168 22.8289 15.283 22.5009 15.283H22.5089Z" fill="#5D86FE"/>
<path d="M12.4135 18.853H11.4535C11.1255 18.853 10.8535 18.5869 10.8535 18.2659C10.8535 17.9449 11.1255 17.6787 11.4535 17.6787H12.4135C12.7415 17.6787 13.0135 17.9449 13.0135 18.2659C13.0135 18.5869 12.7415 18.853 12.4135 18.853Z" fill="#5D86FE"/>
<path d="M22.5089 18.853H14.9809C14.6529 18.853 14.3809 18.5869 14.3809 18.2659C14.3809 17.9449 14.6529 17.6787 14.9809 17.6787H22.5009C22.8289 17.6787 23.1009 17.9449 23.1009 18.2659C23.1009 18.5869 22.8289 18.853 22.5009 18.853H22.5089Z" fill="#5D86FE"/>
</svg>
