<svg width="33" height="32" viewBox="0 0 33 32" fill="none" xmlns="http://www.w3.org/2000/svg">
<g clip-path="url(#clip0_888_2292)">
<path d="M27.1015 16.9264C26.9514 16.9264 26.8014 16.8714 26.683 16.7536L16.8996 7.01392L7.10835 16.7536C6.87936 16.9813 6.50034 16.9813 6.27135 16.7536C6.04236 16.5258 6.04236 16.1488 6.27135 15.921L16.4811 5.76504C16.7022 5.54512 17.097 5.54512 17.3181 5.76504L27.5279 15.921C27.7569 16.1488 27.7569 16.5258 27.5279 16.7536C27.4094 16.8714 27.2594 16.9264 27.1094 16.9264H27.1015Z" fill="#070707"/>
<path d="M19.1737 27.1999H14.6176C14.2939 27.1999 14.0254 26.9329 14.0254 26.6108V19.7224C14.0254 19.4004 14.2939 19.1333 14.6176 19.1333H19.1737C19.4974 19.1333 19.7659 19.4004 19.7659 19.7224V26.6108C19.7659 26.9329 19.4974 27.1999 19.1737 27.1999ZM15.2098 26.0217H18.5815V20.3115H15.2098V26.0217Z" fill="#5D86FE"/>
<path d="M24.8586 27.2H8.93987C8.61613 27.2 8.34766 26.9329 8.34766 26.6109V14.0986C8.34766 13.7766 8.61613 13.5095 8.93987 13.5095C9.26361 13.5095 9.53208 13.7766 9.53208 14.0986V26.0218H24.2664V14.2793C24.2664 13.9572 24.5348 13.6902 24.8586 13.6902C25.1823 13.6902 25.4508 13.9572 25.4508 14.2793V26.6109C25.4508 26.9329 25.1823 27.2 24.8586 27.2Z" fill="#070707"/>
</g>
<defs>
<clipPath id="clip0_888_2292">
<rect x="0.5" width="32" height="32" rx="16" fill="white"/>
</clipPath>
</defs>
</svg>
