<svg width="33" height="32" viewBox="0 0 33 32" fill="none" xmlns="http://www.w3.org/2000/svg">
<path d="M16.8996 27.1924C10.9418 27.1924 6.09961 22.3519 6.09961 16.3962C6.09961 10.4405 10.9418 5.6001 16.8996 5.6001C19.1464 5.6001 21.3079 6.28163 23.1363 7.58274C23.3998 7.76862 23.4617 8.13262 23.2758 8.39594C23.0899 8.65926 22.7257 8.72122 22.4623 8.53534C20.8276 7.38138 18.9062 6.76955 16.8996 6.76955C11.5848 6.76955 7.26173 11.0911 7.26173 16.404C7.26173 21.7168 11.5848 26.0384 16.8996 26.0384C22.2144 26.0384 26.5375 21.7168 26.5375 16.404C26.5375 15.5908 26.4368 14.7853 26.2353 14.0031C26.1579 13.6933 26.3438 13.3758 26.6537 13.2983C26.9636 13.2209 27.2812 13.4068 27.3587 13.7166C27.5834 14.5917 27.6996 15.4978 27.6996 16.404C27.6996 22.3597 22.8574 27.2001 16.8996 27.2001V27.1924Z" fill="#070707"/>
<path d="M17.0929 20.3459C16.7753 20.3459 16.4731 20.2297 16.2329 20.0206L11.2203 15.6448C10.9801 15.4357 10.9569 15.064 11.1661 14.8239C11.3753 14.5838 11.7471 14.5606 11.9873 14.7697L16.9999 19.1454C16.9999 19.1454 17.0774 19.1842 17.1084 19.1842C17.1394 19.1842 17.1781 19.1687 17.2091 19.1299L26.6688 7.57483C26.8702 7.327 27.2421 7.28828 27.4823 7.48964C27.7302 7.691 27.7689 8.05501 27.5675 8.30284L18.1078 19.8579C17.8832 20.1368 17.5578 20.3071 17.2014 20.3304C17.1626 20.3304 17.1316 20.3304 17.0929 20.3304V20.3459Z" fill="#5D86FE"/>
</svg>
