<svg width="65" height="32" viewBox="0 0 65 32" fill="none" xmlns="http://www.w3.org/2000/svg">
<path d="M32.8996 27.1924C26.9418 27.1924 22.0996 22.3519 22.0996 16.3962C22.0996 10.4405 26.9418 5.6001 32.8996 5.6001C35.1464 5.6001 37.3079 6.28163 39.1363 7.58274C39.3998 7.76862 39.4617 8.13262 39.2758 8.39594C39.0899 8.65926 38.7257 8.72122 38.4623 8.53534C36.8276 7.38138 34.9062 6.76955 32.8996 6.76955C27.5848 6.76955 23.2617 11.0911 23.2617 16.404C23.2617 21.7168 27.5848 26.0384 32.8996 26.0384C38.2144 26.0384 42.5375 21.7168 42.5375 16.404C42.5375 15.5908 42.4368 14.7853 42.2353 14.0031C42.1579 13.6933 42.3438 13.3758 42.6537 13.2983C42.9636 13.2209 43.2812 13.4068 43.3587 13.7166C43.5834 14.5917 43.6996 15.4978 43.6996 16.404C43.6996 22.3597 38.8574 27.2001 32.8996 27.2001V27.1924Z" fill="#070707"/>
<path d="M33.0929 20.3459C32.7753 20.3459 32.4731 20.2297 32.2329 20.0206L27.2203 15.6448C26.9801 15.4357 26.9569 15.064 27.1661 14.8239C27.3753 14.5838 27.7471 14.5606 27.9873 14.7697L32.9999 19.1454C32.9999 19.1454 33.0774 19.1842 33.1084 19.1842C33.1394 19.1842 33.1781 19.1687 33.2091 19.1299L42.6688 7.57483C42.8702 7.327 43.2421 7.28828 43.4823 7.48964C43.7302 7.691 43.7689 8.05501 43.5675 8.30284L34.1078 19.8579C33.8832 20.1368 33.5578 20.3071 33.2014 20.3304C33.1626 20.3304 33.1316 20.3304 33.0929 20.3304V20.3459Z" fill="#5D86FE"/>
</svg>
