<svg width="33" height="32" viewBox="0 0 33 32" fill="none" xmlns="http://www.w3.org/2000/svg">
<path d="M6.70047 27.1922C6.5568 27.1922 6.41314 27.137 6.3014 27.0423C6.13379 26.8923 6.06995 26.6714 6.11784 26.4583L7.31505 21.7943C7.39487 21.4707 7.30707 21.1787 7.21129 20.9972C6.25352 19.0717 5.90233 16.9172 6.20562 14.7549C6.86808 10.0199 10.6832 6.29505 15.48 5.68739C18.8562 5.26913 22.1445 6.36607 24.5309 8.71779C26.9174 11.0695 28.0348 14.3288 27.6118 17.6591C27.0052 22.4098 23.0783 26.2847 18.2655 26.8686C16.0308 27.1449 13.8199 26.7424 11.8644 25.7165C11.5931 25.5744 11.2658 25.5586 10.9625 25.6691L6.90799 27.1606C6.83616 27.1843 6.7723 27.2001 6.70047 27.2001V27.1922ZM11.3616 24.4064C11.7288 24.4064 12.0959 24.4933 12.4152 24.6669C14.1551 25.5744 16.1185 25.9295 18.1139 25.6849C22.3919 25.164 25.8798 21.7233 26.4225 17.5012C26.7976 14.534 25.8 11.6377 23.6849 9.54642C21.5698 7.45512 18.6407 6.46866 15.6317 6.84746C11.4334 7.37621 7.96951 10.7617 7.39485 14.9049C7.12348 16.8304 7.43477 18.756 8.28879 20.4606C8.55217 20.9815 8.61602 21.5575 8.48033 22.0784L7.56247 25.6454L10.5475 24.5485C10.8109 24.4538 11.0902 24.3986 11.3696 24.3986L11.3616 24.4064Z" fill="#070707"/>
<path d="M12.5105 17.3354C13.0395 17.3354 13.4683 16.9114 13.4683 16.3884C13.4683 15.8654 13.0395 15.4414 12.5105 15.4414C11.9815 15.4414 11.5527 15.8654 11.5527 16.3884C11.5527 16.9114 11.9815 17.3354 12.5105 17.3354Z" fill="#5D86FE"/>
<path d="M16.9011 17.3354C17.4301 17.3354 17.8589 16.9114 17.8589 16.3884C17.8589 15.8654 17.4301 15.4414 16.9011 15.4414C16.3722 15.4414 15.9434 15.8654 15.9434 16.3884C15.9434 16.9114 16.3722 17.3354 16.9011 17.3354Z" fill="#5D86FE"/>
<path d="M21.2917 17.3354C21.8207 17.3354 22.2495 16.9114 22.2495 16.3884C22.2495 15.8654 21.8207 15.4414 21.2917 15.4414C20.7628 15.4414 20.334 15.8654 20.334 16.3884C20.334 16.9114 20.7628 17.3354 21.2917 17.3354Z" fill="#5D86FE"/>
</svg>
