<svg width="16" height="16" viewBox="0 0 16 16" fill="none" xmlns="http://www.w3.org/2000/svg">
<path d="M6.29053 12.4955C2.82145 12.4955 0 9.69321 0 6.24773C0 2.80226 2.82145 0 6.29053 0C9.7596 0 12.5811 2.80226 12.5811 6.24773C12.5811 9.69321 9.7596 12.4955 6.29053 12.4955ZM6.29053 1.21446C3.49624 1.21446 1.22277 3.47246 1.22277 6.24773C1.22277 9.023 3.49624 11.281 6.29053 11.281C9.08481 11.281 11.3583 9.023 11.3583 6.24773C11.3583 3.47246 9.08481 1.21446 6.29053 1.21446Z" fill="#BEBEBE"/>
<path d="M15.3892 15.9989C15.2306 15.9989 15.0767 15.9404 14.9544 15.8189L9.81869 10.7137C9.57866 10.4753 9.57866 10.093 9.81869 9.85458C10.0587 9.61618 10.4437 9.61618 10.6837 9.85458L15.8194 14.9598C16.0594 15.1982 16.0594 15.5805 15.8194 15.8189C15.7016 15.9359 15.5431 15.9989 15.3846 15.9989H15.3892Z" fill="#BEBEBE"/>
</svg>
