<svg width="8" height="7" viewBox="0 0 8 7" fill="none" xmlns="http://www.w3.org/2000/svg">
<path d="M2.89608 3.28301C3.46109 3.28301 3.91911 2.7221 3.91911 2.03018C3.91911 1.33826 3.46109 0.777344 2.89608 0.777344C2.33107 0.777344 1.87305 1.33826 1.87305 2.03018C1.87305 2.7221 2.33107 3.28301 2.89608 3.28301Z" fill="#BEBEBE"/>
<path d="M5.13241 3.28301C5.69741 3.28301 6.15544 2.7221 6.15544 2.03018C6.15544 1.33826 5.69741 0.777344 5.13241 0.777344C4.5674 0.777344 4.10938 1.33826 4.10938 2.03018C4.10938 2.7221 4.5674 3.28301 5.13241 3.28301Z" fill="#BEBEBE"/>
<path d="M7.66958 3.81311C7.85215 3.29271 7.6558 2.76536 7.23102 2.63524C6.80625 2.50512 6.31391 2.8215 6.13134 3.34191C5.94878 3.86231 6.14513 4.38966 6.5699 4.51978C6.99467 4.6499 7.48702 4.33352 7.66958 3.81311Z" fill="#BEBEBE"/>
<path d="M1.43024 4.52004C1.85501 4.38992 2.05136 3.86256 1.8688 3.34216C1.68624 2.82176 1.19389 2.50537 0.76912 2.63549C0.344347 2.76561 0.147997 3.29296 0.330561 3.81337C0.513124 4.33377 1.00547 4.65016 1.43024 4.52004Z" fill="#BEBEBE"/>
<path d="M5.91518 4.42382C5.15096 3.37027 4.13607 3.40245 4.00167 3.40245C3.86726 3.40245 2.85237 3.37027 2.08815 4.42382C1.30357 5.50539 1.39984 6.43057 1.87266 6.68314C2.22367 6.87067 3.10045 6.73262 3.64955 6.64128C3.88281 6.60253 4.12089 6.60253 4.35415 6.64128C4.90325 6.73262 5.78003 6.87067 6.13104 6.68314C6.60386 6.43057 6.70013 5.50539 5.91555 4.42382H5.91518Z" fill="#BEBEBE"/>
</svg>
