<svg width="433" height="113" viewBox="0 0 433 113" fill="none" xmlns="http://www.w3.org/2000/svg">
<path d="M76.3152 0V53.8702C76.3152 73.0201 60.7692 88.5309 41.5758 88.5309C35.2378 88.5309 29.5176 87.4769 24.3954 85.3691C19.2931 83.2612 14.9083 80.2187 11.2809 76.2615C7.65346 72.3042 4.86314 67.6112 2.90992 62.2222C0.976625 56.8332 0 50.8476 0 44.2655C0 37.6833 0.976625 31.6779 2.90992 26.2491C4.86314 20.8203 7.63353 16.1273 11.2211 12.2098C14.8086 8.29234 19.1934 5.26972 24.3356 3.16184C29.4977 1.05396 35.2378 0 41.5758 0H76.3152Z" fill="white"/>
<path d="M159.763 84.0169C148.104 84.0169 138.238 76.2019 135.149 65.5233C134.132 62.0035 136.783 58.4639 140.45 58.4639H141.845C144.377 58.4639 146.39 60.2337 147.187 62.6399C148.941 67.8897 153.904 71.6879 159.743 71.6879C165.583 71.6879 170.546 67.8897 172.3 62.6399C173.097 60.2536 175.11 58.4639 177.641 58.4639H179.036C182.704 58.4639 185.354 62.0035 184.338 65.5233C181.269 76.182 171.383 84.0169 159.723 84.0169H159.763Z" fill="#FFC748"/>
<path d="M156.756 49.9725C156.756 41.879 150.159 35.2969 142.047 35.2969C133.935 35.2969 127.338 41.879 127.338 49.9725C127.338 55.5405 130.467 60.4125 135.071 62.8982C133.238 68.0088 128.355 71.6876 122.614 71.6876C116.874 71.6876 111.812 67.8895 110.058 62.6396C109.261 60.2534 107.248 58.4636 104.717 58.4636H103.321C99.6541 58.4636 97.0033 62.0033 98.0197 65.5231C101.089 76.1818 110.975 84.0167 122.634 84.0167C134.294 84.0167 144.16 76.1818 147.249 65.5231C147.428 64.8867 147.468 64.2305 147.408 63.6141C152.869 61.4664 156.756 56.1768 156.756 49.9725Z" fill="white"/>
<path d="M257.01 85.2086C253.602 85.2086 250.832 82.4444 250.832 79.044V59.1186C250.832 51.3234 245.55 44.1645 237.877 42.6731C227.553 40.6846 218.484 48.5394 218.484 58.4822V79.044C218.484 82.4444 215.714 85.2086 212.306 85.2086C208.897 85.2086 206.127 82.4444 206.127 79.044V59.7549C206.127 44.9004 216.989 31.5968 231.798 30.1452C248.799 28.4748 263.189 41.838 263.189 58.4822V79.044C263.189 82.4444 260.419 85.2086 257.01 85.2086Z" fill="white"/>
<path d="M304.942 28.6562C289.137 28.6562 276.262 41.4825 276.262 57.2717C276.262 73.0609 289.117 85.8871 304.942 85.8871C311.001 85.8871 316.622 83.9781 321.246 80.7567V85.211C321.246 92.688 316.163 99.0117 309.267 100.901C306.616 101.637 304.942 104.242 304.942 106.986C304.942 110.983 308.809 113.846 312.675 112.773C324.754 109.392 333.623 98.3157 333.623 85.211V57.2717C333.623 41.5024 320.767 28.6562 304.942 28.6562ZM304.942 73.5382C295.953 73.5382 288.639 66.2402 288.639 57.2717C288.639 48.3033 295.953 41.0052 304.942 41.0052C313.931 41.0052 321.246 48.3033 321.246 57.2717C321.246 66.2402 313.931 73.5382 304.942 73.5382Z" fill="white"/>
<path d="M360.187 10.9156C360.187 7.51098 357.421 4.75098 354.009 4.75098C350.596 4.75098 347.83 7.51098 347.83 10.9156V79.0438C347.83 82.4483 350.596 85.2083 354.009 85.2083C357.421 85.2083 360.187 82.4483 360.187 79.0438V10.9156Z" fill="white"/>
<path d="M432.382 63.5139C432.78 61.5453 433 59.3578 433 57.3494C433 38.816 415.939 24.1603 396.666 28.2169C385.385 30.5833 376.276 39.6909 373.905 50.9462C369.859 70.1756 384.528 87.1779 403.123 87.1779C410.996 87.1779 418.33 84.1751 423.811 78.9054C426.721 76.1015 426.143 71.2694 422.695 69.1814C420.224 67.6899 417.154 68.2269 415.042 70.1956C411.853 73.1585 407.647 74.8289 403.143 74.8289C395.669 74.8289 389.311 70.116 386.8 63.5139H432.421H432.382ZM403.103 39.8699C410.577 39.8699 416.935 44.5828 419.447 51.1849H386.76C389.271 44.5828 395.629 39.8699 403.103 39.8699Z" fill="white"/>
</svg>
