<svg width="433" height="113" viewBox="0 0 433 113" fill="none" xmlns="http://www.w3.org/2000/svg">
<path d="M76.3153 0V53.8702C76.3153 73.0201 60.7692 88.5309 41.5758 88.5309C35.2378 88.5309 29.5176 87.477 24.3954 85.3691C19.2931 83.2612 14.9083 80.2187 11.2809 76.2615C7.65346 72.3042 4.86317 67.6112 2.90995 62.2222C0.976656 56.8332 0 50.8476 0 44.2655C0 37.6833 0.976656 31.6778 2.90995 26.249C4.86317 20.8203 7.63353 16.1273 11.2211 12.2098C14.8086 8.29231 19.1935 5.26972 24.3356 3.16184C29.4977 1.05396 35.2378 0 41.5758 0H76.3153Z" fill="#84DACF"/>
<path d="M159.763 84.0169C148.104 84.0169 138.238 76.2018 135.149 65.5232C134.132 62.0035 136.783 58.4639 140.45 58.4639H141.845C144.377 58.4639 146.39 60.2337 147.187 62.6398C148.941 67.8896 153.904 71.6878 159.743 71.6878C165.583 71.6878 170.546 67.8896 172.3 62.6398C173.097 60.2536 175.11 58.4639 177.641 58.4639H179.036C182.704 58.4639 185.355 62.0035 184.338 65.5232C181.269 76.182 171.383 84.0169 159.723 84.0169H159.763Z" fill="#FFC748"/>
<path d="M156.756 49.9725C156.756 41.879 150.159 35.2969 142.047 35.2969C133.935 35.2969 127.338 41.879 127.338 49.9725C127.338 55.5405 130.467 60.4124 135.071 62.8982C133.238 68.0088 128.354 71.6876 122.614 71.6876C116.874 71.6876 111.812 67.8894 110.058 62.6396C109.261 60.2534 107.248 58.4637 104.716 58.4637H103.321C99.6541 58.4637 97.0033 62.0033 98.0197 65.523C101.089 76.1817 110.975 84.0167 122.634 84.0167C134.294 84.0167 144.16 76.1817 147.249 65.523C147.428 64.8867 147.468 64.2305 147.408 63.614C152.869 61.4664 156.756 56.1768 156.756 49.9725Z" fill="#84DACF"/>
<path d="M257.01 85.2085C253.602 85.2085 250.832 82.4444 250.832 79.044V59.1186C250.832 51.3234 245.55 44.1646 237.877 42.6732C227.553 40.6846 218.484 48.5394 218.484 58.4822V79.044C218.484 82.4444 215.714 85.2085 212.306 85.2085C208.897 85.2085 206.127 82.4444 206.127 79.044V59.7549C206.127 44.9003 216.989 31.5968 231.798 30.1452C248.799 28.4748 263.189 41.8379 263.189 58.4822V79.044C263.189 82.4444 260.419 85.2085 257.01 85.2085Z" fill="#84DACF"/>
<path d="M304.942 28.6562C289.137 28.6562 276.262 41.4825 276.262 57.2717C276.262 73.0609 289.117 85.8871 304.942 85.8871C311.001 85.8871 316.622 83.9781 321.246 80.7566V85.211C321.246 92.688 316.163 99.0117 309.267 100.901C306.616 101.637 304.942 104.242 304.942 106.986C304.942 110.983 308.809 113.846 312.675 112.773C324.753 109.392 333.623 98.3157 333.623 85.211V57.2717C333.623 41.5024 320.767 28.6562 304.942 28.6562ZM304.942 73.5382C295.953 73.5382 288.639 66.2401 288.639 57.2717C288.639 48.3033 295.953 41.0052 304.942 41.0052C313.931 41.0052 321.246 48.3033 321.246 57.2717C321.246 66.2401 313.931 73.5382 304.942 73.5382Z" fill="#84DACF"/>
<path d="M360.209 10.9155C360.209 7.51095 357.442 4.75098 354.03 4.75098C350.618 4.75098 347.852 7.51095 347.852 10.9155V79.0437C347.852 82.4483 350.618 85.2083 354.03 85.2083C357.442 85.2083 360.209 82.4483 360.209 79.0437V10.9155Z" fill="#84DACF"/>
<path d="M432.382 63.5139C432.78 61.5453 433 59.3579 433 57.3494C433 38.816 415.939 24.1603 396.666 28.2169C385.385 30.5833 376.276 39.691 373.905 50.9462C369.859 70.1756 384.528 87.1779 403.123 87.1779C410.996 87.1779 418.33 84.1751 423.811 78.9054C426.721 76.1016 426.143 71.2693 422.695 69.1814C420.224 67.6899 417.155 68.2268 415.042 70.1955C411.853 73.1585 407.647 74.8289 403.143 74.8289C395.669 74.8289 389.311 70.116 386.8 63.5139H432.422H432.382ZM403.103 39.8699C410.577 39.8699 416.935 44.5828 419.447 51.1848H386.76C389.271 44.5828 395.629 39.8699 403.103 39.8699Z" fill="#84DACF"/>
</svg>
