<svg width="33" height="32" viewBox="0 0 33 32" fill="none" xmlns="http://www.w3.org/2000/svg">
<path d="M16.8969 13.9665C14.5823 13.9665 12.6992 12.0898 12.6992 9.78307C12.6992 7.4763 14.5823 5.59961 16.8969 5.59961C19.2116 5.59961 21.0946 7.4763 21.0946 9.78307C21.0946 12.0898 19.2116 13.9665 16.8969 13.9665ZM16.8969 6.76472C15.2335 6.76472 13.8761 8.1175 13.8761 9.77525C13.8761 11.433 15.2335 12.7858 16.8969 12.7858C18.5603 12.7858 19.9177 11.433 19.9177 9.77525C19.9177 8.1175 18.5603 6.76472 16.8969 6.76472Z" fill="#84DACF"/>
<path d="M23.5736 26.3988H10.235C8.39902 26.3988 6.90039 24.9131 6.90039 23.0755C6.90039 19.9008 9.48964 17.3281 12.6674 17.3281H21.1334C24.319 17.3281 26.9004 19.9086 26.9004 23.0755C26.9004 24.9053 25.4018 26.3988 23.5658 26.3988H23.5736ZM12.6674 18.5011C10.133 18.5011 8.07732 20.5576 8.07732 23.0755C8.07732 24.2562 9.04241 25.2259 10.235 25.2259H23.5736C24.7584 25.2259 25.7313 24.2641 25.7313 23.0755C25.7313 20.5498 23.6677 18.5011 21.1413 18.5011H12.6752H12.6674Z" fill="#070707"/>
</svg>
