<svg width="33" height="32" viewBox="0 0 33 32" fill="none" xmlns="http://www.w3.org/2000/svg">
<path d="M16.8996 27.1919C10.9418 27.1919 6.09961 22.3514 6.09961 16.3957C6.09961 10.4401 10.9418 5.59961 16.8996 5.59961C19.1464 5.59961 21.3079 6.28114 23.1363 7.58226C23.3998 7.76813 23.4617 8.13213 23.2758 8.39545C23.0899 8.65877 22.7257 8.72073 22.4623 8.53486C20.8276 7.38089 18.9062 6.76906 16.8996 6.76906C11.5848 6.76906 7.26173 11.0906 7.26173 16.4035C7.26173 21.7164 11.5848 26.0379 16.8996 26.0379C22.2144 26.0379 26.5375 21.7164 26.5375 16.4035C26.5375 15.5903 26.4368 14.7848 26.2353 14.0026C26.1579 13.6928 26.3438 13.3753 26.6537 13.2979C26.9636 13.2204 27.2812 13.4063 27.3587 13.7161C27.5834 14.5912 27.6996 15.4973 27.6996 16.4035C27.6996 22.3592 22.8574 27.1996 16.8996 27.1996V27.1919Z" fill="#070707"/>
<path d="M17.0929 20.3446C16.7753 20.3446 16.4731 20.2285 16.2329 20.0194L11.2203 15.6436C10.9801 15.4345 10.9569 15.0627 11.1661 14.8227C11.3753 14.5826 11.7471 14.5593 11.9873 14.7685L16.9999 19.1442C16.9999 19.1442 17.0774 19.1829 17.1084 19.1829C17.1394 19.1829 17.1781 19.1674 17.2091 19.1287L26.6688 7.57361C26.8702 7.32578 27.2421 7.28706 27.4823 7.48842C27.7302 7.68978 27.7689 8.05379 27.5675 8.30162L18.1078 19.8567C17.8832 20.1355 17.5578 20.3059 17.2014 20.3292C17.1626 20.3292 17.1316 20.3292 17.0929 20.3292V20.3446Z" fill="#84DACF"/>
</svg>
