<svg width="33" height="32" viewBox="0 0 33 32" fill="none" xmlns="http://www.w3.org/2000/svg">
<path d="M16.9324 26.393C16.5084 26.393 16.0844 26.2833 15.7084 26.072L15.2284 25.798C14.8524 25.5866 14.3884 25.5787 14.0124 25.7901L13.5484 26.0407C12.7404 26.4869 11.7324 26.4321 10.9724 25.9076L10.3164 25.4535C10.0764 25.2891 9.75639 25.2734 9.50839 25.4143C8.96439 25.7197 8.38839 25.7588 7.86839 25.5474L7.72439 25.4926C7.22839 25.2891 6.90039 24.8193 6.90039 24.2948V8.61347C6.91639 6.51532 8.66039 4.80078 10.8044 4.80078H23.0124C25.1564 4.80078 26.9004 6.50749 26.9004 8.60564V24.2948C26.9004 24.8272 26.5724 25.3047 26.0604 25.5005C25.5724 25.6883 25.0284 25.657 24.5564 25.4222C24.2364 25.2578 23.9404 25.2734 23.7084 25.43L22.9404 25.9389C22.1724 26.4478 21.2044 26.4947 20.3964 26.0485L19.8924 25.7745C19.5244 25.5709 19.0764 25.5709 18.7084 25.7745L18.1084 26.1033C17.7484 26.299 17.3404 26.4008 16.9324 26.4008V26.393ZM14.6124 24.4592C15.0364 24.4592 15.4604 24.5688 15.8364 24.788L16.3084 25.062C16.6764 25.2734 17.1404 25.2812 17.5164 25.0777L18.1164 24.7489C18.8444 24.3496 19.7484 24.3574 20.4764 24.7489L20.9804 25.0229C21.3884 25.2499 21.8764 25.2264 22.2604 24.9681L23.0284 24.4592C23.6284 24.0599 24.3964 24.013 25.0444 24.3418C25.2684 24.4592 25.4524 24.467 25.6124 24.4044C25.6604 24.3887 25.6924 24.3418 25.6924 24.287V8.61347C25.6924 7.16512 24.4844 5.98295 23.0044 5.98295H10.8044C9.32439 5.98295 8.11639 7.16512 8.11639 8.61347V24.3026C8.11639 24.3496 8.14839 24.3966 8.19639 24.4201L8.34039 24.4749C8.51639 24.5453 8.70839 24.5297 8.86839 24.4436C9.58039 24.0443 10.4044 24.0834 11.0204 24.5062L11.6764 24.9603C12.0604 25.2264 12.5644 25.2499 12.9724 25.0229L13.4364 24.7724C13.8044 24.5688 14.2124 24.467 14.6204 24.467L14.6124 24.4592Z" fill="#070707"/>
<path d="M12.4135 11.7056H11.4535C11.1255 11.7056 10.8535 11.4394 10.8535 11.1184C10.8535 10.7974 11.1255 10.5312 11.4535 10.5312H12.4135C12.7415 10.5312 13.0135 10.7974 13.0135 11.1184C13.0135 11.4394 12.7415 11.7056 12.4135 11.7056Z" fill="#84DACF"/>
<path d="M22.5089 11.7056H14.9809C14.6529 11.7056 14.3809 11.4394 14.3809 11.1184C14.3809 10.7974 14.6529 10.5312 14.9809 10.5312H22.5009C22.8289 10.5312 23.1009 10.7974 23.1009 11.1184C23.1009 11.4394 22.8289 11.7056 22.5009 11.7056H22.5089Z" fill="#84DACF"/>
<path d="M12.4135 15.2837H11.4535C11.1255 15.2837 10.8535 15.0175 10.8535 14.6965C10.8535 14.3756 11.1255 14.1094 11.4535 14.1094H12.4135C12.7415 14.1094 13.0135 14.3756 13.0135 14.6965C13.0135 15.0175 12.7415 15.2837 12.4135 15.2837Z" fill="#84DACF"/>
<path d="M22.5089 15.2837H14.9809C14.6529 15.2837 14.3809 15.0175 14.3809 14.6965C14.3809 14.3756 14.6529 14.1094 14.9809 14.1094H22.5009C22.8289 14.1094 23.1009 14.3756 23.1009 14.6965C23.1009 15.0175 22.8289 15.2837 22.5009 15.2837H22.5089Z" fill="#84DACF"/>
<path d="M12.4135 18.854H11.4535C11.1255 18.854 10.8535 18.5878 10.8535 18.2669C10.8535 17.9459 11.1255 17.6797 11.4535 17.6797H12.4135C12.7415 17.6797 13.0135 17.9459 13.0135 18.2669C13.0135 18.5878 12.7415 18.854 12.4135 18.854Z" fill="#84DACF"/>
<path d="M22.5089 18.854H14.9809C14.6529 18.854 14.3809 18.5878 14.3809 18.2669C14.3809 17.9459 14.6529 17.6797 14.9809 17.6797H22.5009C22.8289 17.6797 23.1009 17.9459 23.1009 18.2669C23.1009 18.5878 22.8289 18.854 22.5009 18.854H22.5089Z" fill="#84DACF"/>
</svg>
