<svg width="33" height="32" viewBox="0 0 33 32" fill="none" xmlns="http://www.w3.org/2000/svg">
<path d="M27.1015 16.9259C26.9514 16.9259 26.8014 16.8709 26.683 16.7531L16.8996 7.01343L7.10835 16.7531C6.87936 16.9809 6.50034 16.9809 6.27135 16.7531C6.04236 16.5253 6.04236 16.1483 6.27135 15.9205L16.4811 5.76455C16.7022 5.54463 17.097 5.54463 17.3181 5.76455L27.5279 15.9205C27.7569 16.1483 27.7569 16.5253 27.5279 16.7531C27.4094 16.8709 27.2594 16.9259 27.1094 16.9259H27.1015Z" fill="#070707"/>
<path d="M19.1737 27.1994H14.6176C14.2939 27.1994 14.0254 26.9324 14.0254 26.6103V19.7219C14.0254 19.3999 14.2939 19.1328 14.6176 19.1328H19.1737C19.4974 19.1328 19.7659 19.3999 19.7659 19.7219V26.6103C19.7659 26.9324 19.4974 27.1994 19.1737 27.1994ZM15.2098 26.0213H18.5815V20.311H15.2098V26.0213Z" fill="#84DACF"/>
<path d="M24.8586 27.2002H8.93987C8.61613 27.2002 8.34766 26.9332 8.34766 26.6112V14.0989C8.34766 13.7768 8.61613 13.5098 8.93987 13.5098C9.26361 13.5098 9.53208 13.7768 9.53208 14.0989V26.0221H24.2664V14.2795C24.2664 13.9575 24.5348 13.6904 24.8586 13.6904C25.1823 13.6904 25.4508 13.9575 25.4508 14.2795V26.6112C25.4508 26.9332 25.1823 27.2002 24.8586 27.2002Z" fill="#070707"/>
</svg>
