<svg width="33" height="32" viewBox="0 0 33 32" fill="none" xmlns="http://www.w3.org/2000/svg">
<path d="M6.70047 27.1917C6.5568 27.1917 6.41314 27.1365 6.3014 27.0418C6.13379 26.8918 6.06995 26.6709 6.11784 26.4578L7.31505 21.7938C7.39487 21.4703 7.30707 21.1783 7.21129 20.9968C6.25352 19.0712 5.90233 16.9168 6.20562 14.7544C6.86808 10.0194 10.6832 6.29456 15.48 5.6869C18.8562 5.26864 22.1445 6.36558 24.5309 8.7173C26.9174 11.069 28.0348 14.3283 27.6118 17.6586C27.0052 22.4094 23.0783 26.2842 18.2655 26.8682C16.0308 27.1444 13.8199 26.7419 11.8644 25.716C11.5931 25.5739 11.2658 25.5581 10.9625 25.6686L6.90799 27.1602C6.83616 27.1838 6.7723 27.1996 6.70047 27.1996V27.1917ZM11.3616 24.406C11.7288 24.406 12.0959 24.4928 12.4152 24.6664C14.1551 25.5739 16.1185 25.9291 18.1139 25.6844C22.3919 25.1636 25.8798 21.7228 26.4225 17.5007C26.7976 14.5335 25.8 11.6372 23.6849 9.54593C21.5698 7.45463 18.6407 6.46818 15.6317 6.84698C11.4334 7.37572 7.96951 10.7612 7.39485 14.9044C7.12348 16.8299 7.43477 18.7555 8.28879 20.4601C8.55217 20.981 8.61602 21.5571 8.48033 22.0779L7.56247 25.6449L10.5475 24.548C10.8109 24.4533 11.0902 24.3981 11.3696 24.3981L11.3616 24.406Z" fill="#070707"/>
<path d="M12.5105 17.3354C13.0395 17.3354 13.4683 16.9114 13.4683 16.3884C13.4683 15.8654 13.0395 15.4414 12.5105 15.4414C11.9815 15.4414 11.5527 15.8654 11.5527 16.3884C11.5527 16.9114 11.9815 17.3354 12.5105 17.3354Z" fill="#84DACF"/>
<path d="M16.9011 17.3354C17.4301 17.3354 17.8589 16.9114 17.8589 16.3884C17.8589 15.8654 17.4301 15.4414 16.9011 15.4414C16.3722 15.4414 15.9434 15.8654 15.9434 16.3884C15.9434 16.9114 16.3722 17.3354 16.9011 17.3354Z" fill="#84DACF"/>
<path d="M21.2917 17.3354C21.8207 17.3354 22.2495 16.9114 22.2495 16.3884C22.2495 15.8654 21.8207 15.4414 21.2917 15.4414C20.7628 15.4414 20.334 15.8654 20.334 16.3884C20.334 16.9114 20.7628 17.3354 21.2917 17.3354Z" fill="#84DACF"/>
</svg>
