<svg width="9" height="7" viewBox="0 0 9 7" fill="none" xmlns="http://www.w3.org/2000/svg">
<path d="M3.25834 2.92323C3.89397 2.92323 4.40926 2.26885 4.40926 1.46162C4.40926 0.654388 3.89397 0 3.25834 0C2.62271 0 2.10742 0.654388 2.10742 1.46162C2.10742 2.26885 2.62271 2.92323 3.25834 2.92323Z" fill="#FF6767"/>
<path d="M5.77396 2.92323C6.4096 2.92323 6.92488 2.26885 6.92488 1.46162C6.92488 0.654388 6.4096 0 5.77396 0C5.13833 0 4.62305 0.654388 4.62305 1.46162C4.62305 2.26885 5.13833 2.92323 5.77396 2.92323Z" fill="#FF6767"/>
<path d="M8.6278 3.54223C8.83319 2.9351 8.61229 2.31987 8.13442 2.16806C7.65655 2.01626 7.10266 2.38537 6.89727 2.9925C6.69189 3.59962 6.91278 4.21486 7.39065 4.36666C7.86853 4.51847 8.42242 4.14936 8.6278 3.54223Z" fill="#FF6767"/>
<path d="M1.60903 4.36612C2.0869 4.21431 2.30779 3.59908 2.10241 2.99195C1.89703 2.38482 1.34314 2.01571 0.865264 2.16752C0.387392 2.31932 0.166497 2.93456 0.371882 3.54168C0.577267 4.14881 1.13116 4.51792 1.60903 4.36612Z" fill="#FF6767"/>
<path d="M6.65362 4.25518C5.79387 3.02606 4.65212 3.0636 4.50091 3.0636C4.3497 3.0636 3.20795 3.02606 2.3482 4.25518C1.46554 5.51699 1.57384 6.59635 2.10577 6.89101C2.50065 7.10979 3.48704 6.94873 4.10477 6.84217C4.3672 6.79696 4.63504 6.79696 4.89746 6.84217C5.5152 6.94873 6.50158 7.10979 6.89647 6.89101C7.4284 6.59635 7.5367 5.51699 6.65404 4.25518H6.65362Z" fill="#FF6767"/>
</svg>
