<svg width="19" height="20" viewBox="0 0 19 20" fill="none" xmlns="http://www.w3.org/2000/svg">
<path d="M7.47035 15.6199C3.35063 15.6199 0 12.117 0 7.80996C0 3.50295 3.35063 0 7.47035 0C11.5901 0 14.9407 3.50295 14.9407 7.80996C14.9407 12.117 11.5901 15.6199 7.47035 15.6199ZM7.47035 1.51813C4.15199 1.51813 1.45211 4.34074 1.45211 7.80996C1.45211 11.2792 4.15199 14.1018 7.47035 14.1018C10.7887 14.1018 13.4886 11.2792 13.4886 7.80996C13.4886 4.34074 10.7887 1.51813 7.47035 1.51813Z" fill="white"/>
<path d="M18.2743 19.9998C18.0861 19.9998 17.9032 19.9267 17.758 19.7749L11.6591 13.3931C11.3741 13.0951 11.3741 12.6172 11.6591 12.3192C11.9441 12.0212 12.4013 12.0212 12.6863 12.3192L18.7853 18.701C19.0703 18.999 19.0703 19.4769 18.7853 19.7749C18.6454 19.9211 18.4572 19.9998 18.2689 19.9998H18.2743Z" fill="white"/>
</svg>
